# xmcd CD database file
#
# Track frame offsets:
#	150
#	17368
#	34850
#	52088
#	65411
#	81712
#	93434
#	110989
#	125615
#	138650
#	156046
#	168591
#	183887
#	196089
#	208566
#	225228
#	237803
#	251925
#	268563
#	289186
#	306792
#
# Disc length: 4290 seconds
#
# Revision: 0
# Processed by: cddbd v1.5.1PL2 Copyright (c) Steve Scherf et al.
# Submitted via: CDex 1.51
#
DISCID=2f10c015
DTITLE=Susie Luchsinger - Real Love and Come As You Are
DYEAR=1900
DGENRE=Country
TTITLE0=Brighter Day
TTITLE1=I Don't Love You Like I Used To
TTITLE2=For Pete Sake
TTITLE3=Thats When The Real Love Starts
TTITLE4=Walk Watcha Talk
TTITLE5=If Your Roof's Been Leakin'
TTITLE6=There Is A Candle
TTITLE7=I Saw Him In Your Eyes
TTITLE8=Love Of God
TTITLE9=Nothin' I Like Better
TTITLE10=You're It
TTITLE11=Take It To The Rock
TTITLE12=Call The Family Together
TTITLE13=Give Love An Inch
TTITLE14=Come As You Are
TTITLE15=God You Never Cried
TTITLE16=Love Will Carry The Load
TTITLE17=Two In The Saddle
TTITLE18=if I Could Only Be Like You
TTITLE19=The Least The Last And The Lost
TTITLE20=Amazing Grace - Softly And Tenderly
EXTD=
EXTT0=
EXTT1=
EXTT2=
EXTT3=
EXTT4=
EXTT5=
EXTT6=
EXTT7=
EXTT8=
EXTT9=
EXTT10=
EXTT11=
EXTT12=
EXTT13=
EXTT14=
EXTT15=
EXTT16=
EXTT17=
EXTT18=
EXTT19=
EXTT20=
PLAYORDER=
